<svg id="Layer_4" height="512" viewBox="0 0 64 64" width="512" xmlns="http://www.w3.org/2000/svg" data-name="Layer 4"><path d="m60.23 52a21.26 21.26 0 0 0 2.69-13l-21-3.65a10.29 10.29 0 0 1 -5.28 9.11c4.54 5.4 8.82 11.07 13.36 16.54a22.31 22.31 0 0 0 10.23-9z" fill="#8dc63f"/><path d="m26.74 27.2a10.29 10.29 0 0 1 10.53 0l7.37-20a21.05 21.05 0 0 0 -25.26 0z" fill="#8dc63f"/><path d="m26.74 27.2a10.29 10.29 0 0 1 10.53 0l7.37-20a21.05 21.05 0 0 0 -25.26 0z" fill="#ffde17"/><path d="m27.31 44.37a10.29 10.29 0 0 1 -5.23-9.13c-7.01 1.18-14.08 2.58-21.08 3.76a28.43 28.43 0 0 0 2.69 12.83 21.89 21.89 0 0 0 10.31 9.17c4.56-5.44 8.75-11.19 13.31-16.63z" fill="#8dc63f"/><circle cx="32" cy="35.62" fill="#ffde17" r="5.26"/><path d="m41 39.6c3.94 1 13.41 3.89 20.16 10.5a21.18 21.18 0 0 0 1.73-11.16l-21-3.65a10.46 10.46 0 0 1 -.89 4.31z" fill="#b3e269"/><path d="m26.74 27.2a10.29 10.29 0 0 1 10.53 0l7.37-20a21.05 21.05 0 0 0 -25.26 0z" fill="#ffde17"/><path d="m19.37 7.2 1.33 3.61c6-.75 14.93-1 21.61 2.68l2.32-6.29a21 21 0 0 0 -25.26 0z" fill="#fce754"/><path d="m22.49 38.28a10.48 10.48 0 0 1 -.42-3c-7 1.14-14.07 2.54-21.07 3.72a28.53 28.53 0 0 0 2.39 12.16c6.04-5.68 15.47-10.95 19.1-12.88z" fill="#b3e269"/><g opacity=".5"><path d="m10 44a1 1 0 0 1 -.27-2l7-2a1 1 0 1 1 .54 2l-7 2a1 1 0 0 1 -.27 0z" fill="#fff"/></g><g opacity=".5"><path d="m54.5 44a1 1 0 0 1 -.28 0l-7-2a1 1 0 1 1 .55-2l7 2a1 1 0 0 1 -.27 2z" fill="#fff"/></g><g opacity=".5"><path d="m36.59 17.5h-.19a1 1 0 0 1 -.79-1.17l1.35-7a1 1 0 1 1 2 .38l-1.35 7a1 1 0 0 1 -1.02.79z" fill="#fff"/></g><g fill="#06381f"><path d="m38.26 35.62a6.26 6.26 0 1 0 -6.26 6.26 6.27 6.27 0 0 0 6.26-6.26zm-6.26 4.26a4.26 4.26 0 1 1 4.26-4.26 4.27 4.27 0 0 1 -4.26 4.26z"/><path d="m45.23 6.4a22.08 22.08 0 0 0 -4.85-2.74 1 1 0 0 0 -.76 1.85 20.26 20.26 0 0 1 3.81 2.06l-6.71 18.22a11.28 11.28 0 0 0 -4.57-1 10.87 10.87 0 0 0 -4.86 1l-6.72-18.22a20.25 20.25 0 0 1 11.43-3.57 19.92 19.92 0 0 1 3.81.37 1 1 0 0 0 .38-2 21.93 21.93 0 0 0 -4.19-.37 22.23 22.23 0 0 0 -13.23 4.4 1 1 0 0 0 -.34 1.15l7.37 20a1 1 0 0 0 .6.6 1 1 0 0 0 .33.06 1 1 0 0 0 .51-.14 9.1 9.1 0 0 1 4.87-1.31 9.3 9.3 0 0 1 4.63 1.31 1 1 0 0 0 1.45-.51l7.37-20a1 1 0 0 0 -.33-1.16z"/><path d="m63.17 38-8-1.41a1 1 0 0 0 -.35 2l7.18 1.25a24.51 24.51 0 0 1 -2.64 11.64 21.41 21.41 0 0 1 -9.08 8.29c-2.09-2.54-4.17-5.16-6.18-7.7s-3.94-5-6-7.44a11.27 11.27 0 0 0 4.73-8.16l7 1.22a1 1 0 0 0 .35-2l-8.08-1.39a1 1 0 0 0 -1.17 1 9.29 9.29 0 0 1 -4.77 8.22 1 1 0 0 0 -.28 1.48c2.26 2.72 4.5 5.55 6.66 8.29s4.46 5.61 6.69 8.35a1 1 0 0 0 1.16.28 23.12 23.12 0 0 0 10.7-9.44 27.06 27.06 0 0 0 2.91-13.48 1 1 0 0 0 -.83-1z"/><path d="m10 37.4a1 1 0 0 0 -1.16-.8c-2.67.49-5.33 1-8 1.41a1 1 0 0 0 -.84.99v.18a29.35 29.35 0 0 0 2.78 13.08 23.07 23.07 0 0 0 10.82 9.66 1 1 0 0 0 .4.08 1 1 0 0 0 .77-.36c2.29-2.74 4.52-5.58 6.68-8.34s4.35-5.58 6.63-8.3a1 1 0 0 0 -.27-1.51 9.29 9.29 0 0 1 -4.72-8.25 1 1 0 0 0 -.35-.77 1 1 0 0 0 -.82-.23c-3 .51-6.06 1.06-9.09 1.62a1 1 0 1 0 .36 2c2.65-.49 5.3-1 7.94-1.42a11.28 11.28 0 0 0 4.69 8.19c-2 2.46-4 5-5.95 7.47s-4 5.17-6.15 7.71a20.73 20.73 0 0 1 -9.13-8.37 27.22 27.22 0 0 1 -2.59-11.6c2.39-.41 4.78-.84 7.18-1.28a1 1 0 0 0 .82-1.16z"/></g></svg>